<svg width="1920" height="920" viewBox="0 0 1920 920" fill="none" xmlns="http://www.w3.org/2000/svg">
<g clip-path="url(#clip0_8_44)">
<rect width="1920" height="920" fill="#1C1C28"/>
<g style="mix-blend-mode:multiply">
<path d="M-5.63537 580.555C18.865 663.181 80.2556 737.194 162.908 783.751C245.56 830.307 348.67 848.989 445.99 834.979C547.977 820.323 638.638 772.417 730.409 731.261C822.18 690.106 923.673 654.114 1026.09 666.255C1108.16 675.986 1180.91 715.499 1259.16 738.985C1389.45 778.084 1537.46 770.88 1661.85 719.386C1786.25 667.892 1885.53 572.721 1932 460.451V1114.36H-29L-5.63537 580.555Z" fill="#CCCCCC"/>
</g>
<g style="mix-blend-mode:multiply">
<path d="M2022.97 552.535C2011.32 641.669 1908.19 704.197 1805.63 717.734C1703.07 731.271 1599.52 708.23 1497.44 692.202C1395.37 676.174 1285.07 668 1192.33 708.189C1111.7 743.122 1048.17 812.876 958.457 820.859C828.523 832.39 731.437 709.318 602.03 693.816C524.831 684.554 449.103 715.28 382.057 749.651C315.01 784.022 248.72 823.752 171.988 835.437C95.2551 847.123 3.53315 820.482 -23.2007 757.206V1168.39H2075L2022.97 552.535Z" fill="#CCCCCC"/>
</g>
<g style="mix-blend-mode:multiply">
<path d="M46.6249 902.483C72.4931 835.149 133.564 778.587 209.474 751.652C285.383 724.717 374.817 727.888 447.929 760.104C521.326 792.449 575.272 850.491 645.339 887.951C744.798 941.125 875.501 947.643 981.371 904.706C1040.39 880.773 1092.93 842.389 1157.03 832.132C1256.98 816.145 1351.11 871.928 1448.79 896.259C1630.61 941.558 1843.13 863.553 1931.74 719.003V1117.74H5.63428L46.6249 902.483Z" fill="#CCCCCC"/>
</g>
<g style="mix-blend-mode:multiply">
<path d="M2030.61 849.047C1958 908.409 1850.89 927.015 1751.35 919.362C1651.81 911.709 1556.94 880.943 1462.4 852.93C1367.87 824.917 1270.1 799.101 1170.22 801.953C959.335 807.961 769.504 940.202 558.884 929.331C467.798 924.612 381.452 893.118 291.249 881.102C201.047 869.087 95.988 882.392 42.4355 946.251V1170.7H2037.71L2030.61 849.047Z" fill="#CCCCCC"/>
</g>
</g>
<defs>
<clipPath id="clip0_8_44">
<rect width="1920" height="920" fill="white"/>
</clipPath>
</defs>
</svg>
