<svg width="812" height="548" viewBox="0 0 812 548" fill="none" xmlns="http://www.w3.org/2000/svg">
<g clip-path="url(#clip0_4_33)">
<path d="M500.6 460.3L453.9 366.32L410.69 279.35L364.59 186.57L320.46 97.75L319.36 95.53L271.9 0.0300293L223.35 97.75L133.12 279.35L89.91 366.32L43.21 460.3L0 547.26H97.11H336.18L295.21 460.3H140.31L187.01 366.32L230.22 279.35L253.64 232.22L271.9 195.46L313.59 279.35L356.8 366.32L403.49 460.3L446.7 547.26H543.81L505.63 470.42L500.6 460.3Z" fill="white"/>
<path d="M530.46 90.1901C564.755 90.1812 598.42 99.4107 627.915 116.909C657.411 134.407 681.648 159.527 698.08 189.63H796.29C758.29 79.3 653.67 -0.0300346 530.46 -0.0300346C479.25 -0.112262 428.999 13.8582 385.18 40.36L425.52 121.61C456.661 101.071 493.155 90.1445 530.46 90.1901Z" fill="#5973FE"/>
<path d="M811.55 279.36H503.8L546.96 366.36H701.18C679.064 410.628 640.661 444.608 594.03 461.17L634.36 542.41C686.675 521.64 731.542 485.632 763.144 439.054C794.746 392.475 811.624 337.477 811.59 281.19C811.6 280.55 811.56 279.96 811.55 279.36Z" fill="#5973FE"/>
</g>
<defs>
<clipPath id="clip0_4_33">
<rect width="811.6" height="547.26" fill="white"/>
</clipPath>
</defs>
</svg>
